<svg width="247" height="247" viewBox="0 0 247 247" fill="none" xmlns="http://www.w3.org/2000/svg">
  <path d="M123.5 246.842C191.62 246.842 246.842 191.62 246.842 123.5C246.842 55.3803 191.62 0.158203 123.5 0.158203C55.3803 0.158203 0.158203 55.3803 0.158203 123.5C0.158203 191.62 55.3803 246.842 123.5 246.842Z" fill="#FBFDFF"/>
  <path d="M184.032 45.1058C175.957 65.9553 185.485 79.4946 201.329 85.6307C217.174 91.7668 233.335 88.1825 241.41 67.3276C249.484 46.4727 230.569 10.1333 230.569 10.1333C230.569 10.1333 192.113 24.2563 184.032 45.1058Z" fill="#D3DEEA"/>
  <path d="M184.606 128.947C184.589 128.947 184.573 128.945 184.557 128.939C184.541 128.933 184.526 128.923 184.513 128.911C184.5 128.899 184.49 128.884 184.483 128.868C184.475 128.851 184.472 128.834 184.471 128.816C184.471 128.798 184.474 128.781 184.481 128.764L224.542 25.3185C224.555 25.285 224.58 25.2581 224.613 25.2436C224.646 25.229 224.683 25.2281 224.716 25.241C224.75 25.2538 224.777 25.2794 224.791 25.3122C224.806 25.3449 224.807 25.3821 224.794 25.4155L184.731 128.861C184.722 128.886 184.704 128.908 184.682 128.924C184.66 128.939 184.633 128.947 184.606 128.947Z" fill="#AABCCE"/>
  <path d="M201.415 86.4166L192.138 52.9593C192.133 52.9422 192.132 52.9243 192.134 52.9067C192.136 52.8891 192.141 52.8721 192.15 52.8566C192.159 52.8412 192.171 52.8276 192.184 52.8166C192.198 52.8057 192.214 52.7976 192.231 52.7928C192.249 52.788 192.266 52.7867 192.284 52.7888C192.302 52.7909 192.319 52.7965 192.334 52.8052C192.35 52.8139 192.363 52.8255 192.374 52.8395C192.385 52.8534 192.393 52.8694 192.398 52.8865L201.258 84.8462L204.971 34.1156C204.974 34.08 204.99 34.047 205.017 34.0238C205.044 34.0006 205.079 33.989 205.115 33.9916C205.133 33.9928 205.15 33.9975 205.166 34.0054C205.182 34.0133 205.196 34.0242 205.208 34.0376C205.219 34.051 205.228 34.0666 205.234 34.0835C205.239 34.1003 205.242 34.1181 205.24 34.1358L201.415 86.4166Z" fill="#AABCCE"/>
  <path d="M200.74 86.1608L233.127 44.939C233.149 44.9108 233.182 44.8925 233.218 44.8882C233.253 44.8839 233.289 44.8939 233.317 44.9161C233.346 44.9383 233.364 44.9707 233.368 45.0064C233.372 45.042 233.362 45.0779 233.34 45.1062L201.916 85.104L229.99 67.4452C230.005 67.4357 230.022 67.4293 230.04 67.4263C230.057 67.4232 230.075 67.4237 230.092 67.4276C230.109 67.4314 230.126 67.4387 230.14 67.4489C230.155 67.4591 230.167 67.472 230.177 67.487C230.186 67.5019 230.192 67.5186 230.195 67.5361C230.198 67.5535 230.198 67.5714 230.194 67.5887C230.19 67.6059 230.183 67.6223 230.173 67.6367C230.163 67.6512 230.15 67.6635 230.135 67.673L200.74 86.1608Z" fill="#AABCCE"/>
  <path d="M207.92 86.0554C198.385 93.6136 199.125 102.591 204.868 109.837C210.61 117.082 219.184 119.85 228.717 112.293C238.25 104.736 239.393 82.4684 239.393 82.4684C239.393 82.4684 217.455 78.4985 207.92 86.0554Z" fill="white"/>
  <path d="M185.122 125.623C185.094 125.623 185.067 125.614 185.045 125.598C185.022 125.582 185.005 125.559 184.996 125.533C184.987 125.506 184.986 125.478 184.994 125.451C185.001 125.424 185.017 125.401 185.039 125.383L232.341 87.886C232.369 87.8638 232.405 87.8537 232.441 87.8579C232.476 87.862 232.509 87.8801 232.531 87.9082C232.553 87.9363 232.563 87.972 232.559 88.0075C232.555 88.043 232.537 88.0754 232.509 88.0976L185.206 125.594C185.182 125.613 185.153 125.623 185.122 125.623Z" fill="#AABCCE"/>
  <path d="M204.538 110.56L209.502 91.9572C209.507 91.9401 209.515 91.9241 209.526 91.9101C209.537 91.8961 209.55 91.8844 209.566 91.8756C209.581 91.8668 209.598 91.8612 209.616 91.859C209.633 91.8568 209.651 91.8581 209.668 91.8628C209.702 91.8723 209.731 91.8948 209.749 91.9256C209.767 91.9564 209.772 91.9929 209.762 92.0273L205.205 109.121L220.718 86.6326C220.728 86.618 220.741 86.6055 220.756 86.5958C220.77 86.5862 220.787 86.5796 220.805 86.5764C220.822 86.5732 220.84 86.5735 220.857 86.5772C220.875 86.581 220.891 86.5881 220.906 86.5982C220.92 86.6083 220.933 86.6211 220.942 86.6361C220.952 86.651 220.959 86.6676 220.962 86.6851C220.965 86.7026 220.965 86.7205 220.961 86.7378C220.957 86.7552 220.95 86.7716 220.94 86.7862L204.538 110.56Z" fill="#AABCCE"/>
  <path d="M204.095 109.994L230.978 99.4491C230.995 99.4417 231.013 99.4378 231.031 99.4375C231.049 99.4373 231.067 99.4407 231.084 99.4476C231.101 99.4545 231.116 99.4648 231.129 99.4777C231.142 99.4907 231.152 99.5061 231.159 99.523C231.165 99.54 231.168 99.5581 231.168 99.5763C231.167 99.5945 231.163 99.6124 231.155 99.6289C231.148 99.6454 231.137 99.6602 231.123 99.6724C231.11 99.6846 231.094 99.6939 231.077 99.6998L205.64 109.675L223.324 109.136C223.36 109.136 223.394 109.15 223.42 109.175C223.445 109.201 223.459 109.235 223.459 109.271C223.459 109.306 223.445 109.341 223.42 109.366C223.394 109.391 223.36 109.405 223.324 109.405L204.095 109.994Z" fill="#AABCCE"/>
  <path d="M122.54 20.0747H31.271V192.26H122.54V20.0747Z" fill="#D3DEEA"/>
  <path d="M124.814 202.562H29.628C28.353 202.561 27.1304 202.054 26.2287 201.152C25.327 200.251 24.8198 199.028 24.8184 197.753V12.9426C24.8198 11.6676 25.327 10.4452 26.2287 9.5437C27.1304 8.64224 28.353 8.13535 29.628 8.13428H124.814C126.089 8.13535 127.312 8.64224 128.214 9.5437C129.115 10.4452 129.623 11.6676 129.624 12.9426V197.753C129.623 199.028 129.115 200.251 128.214 201.152C127.312 202.054 126.089 202.561 124.814 202.562ZM29.628 8.40657C28.4245 8.40764 27.2705 8.88613 26.4194 9.73703C25.5682 10.5879 25.0894 11.7417 25.088 12.9453V197.756C25.0894 198.96 25.5682 200.113 26.4194 200.964C27.2705 201.815 28.4245 202.294 29.628 202.295H124.814C126.018 202.294 127.172 201.815 128.023 200.964C128.874 200.113 129.353 198.96 129.354 197.756V12.9453C129.353 11.7417 128.874 10.5879 128.023 9.73703C127.172 8.88613 126.018 8.40764 124.814 8.40657H29.628Z" fill="#363E44"/>
  <path d="M60.9041 59.9287H71.7568V49.076H60.9041V59.9287Z" fill="#F7F1EB"/>
  <path d="M39.1809 59.9287H50.0337V49.076H39.1809V59.9287Z" fill="#F7F1EB"/>
  <path d="M104.356 81.6528H115.208V70.8001H104.356V81.6528Z" fill="#F7F1EB"/>
  <path d="M82.6302 81.6528H93.4829V70.8001H82.6302V81.6528Z" fill="#F7F1EB"/>
  <path d="M60.9041 81.6528H71.7568V70.8001H60.9041V81.6528Z" fill="#F7F1EB"/>
  <path d="M39.1809 81.6528H50.0337V70.8001H39.1809V81.6528Z" fill="#F7F1EB"/>
  <path d="M104.356 103.378H115.208V92.5257H104.356V103.378Z" fill="#F7F1EB"/>
  <path d="M82.6302 103.378H93.4829V92.5257H82.6302V103.378Z" fill="#F7F1EB"/>
  <path d="M60.9041 103.378H71.7568V92.5257H60.9041V103.378Z" fill="#00B0F3"/>
  <path d="M39.1809 103.378H50.0337V92.5257H39.1809V103.378Z" fill="#F7F1EB"/>
  <path d="M104.356 125.103H115.208V114.25H104.356V125.103Z" fill="#F7F1EB"/>
  <path d="M82.6302 125.103H93.4829V114.25H82.6302V125.103Z" fill="#F7F1EB"/>
  <path d="M60.9041 125.103H71.7568V114.25H60.9041V125.103Z" fill="#F7F1EB"/>
  <path d="M39.1809 125.103H50.0337V114.25H39.1809V125.103Z" fill="#F7F1EB"/>
  <path d="M104.356 146.827H115.208V135.974H104.356V146.827Z" fill="#F7F1EB"/>
  <path d="M82.6302 146.827H93.4829V135.974H82.6302V146.827Z" fill="#F7F1EB"/>
  <path d="M60.9041 146.827H71.7568V135.974H60.9041V146.827Z" fill="#F7F1EB"/>
  <path d="M39.1809 146.827H50.0337V135.974H39.1809V146.827Z" fill="#F7F1EB"/>
  <path d="M66.4988 105.889H66.4867C63.602 105.889 61.0947 104.382 59.7939 101.867C58.7681 99.894 58.7586 97.6887 59.771 96.2396C60.7254 94.8768 62.0221 94.0734 63.5225 93.9183C65.2371 93.7431 67.0677 94.4373 68.5451 95.8258C68.5595 95.8374 68.5713 95.8519 68.5798 95.8683C68.5883 95.8847 68.5934 95.9026 68.5947 95.9211C68.596 95.9395 68.5934 95.958 68.5873 95.9754C68.5811 95.9928 68.5714 96.0088 68.5588 96.0223C68.5462 96.0359 68.531 96.0466 68.5141 96.054C68.4971 96.0614 68.4788 96.0652 68.4604 96.0653C68.4419 96.0653 68.4236 96.0615 68.4066 96.0542C68.3897 96.0468 68.3744 96.0361 68.3618 96.0226C66.9396 94.6867 65.1859 94.0181 63.5508 94.1866C62.13 94.3335 60.9006 95.0965 59.992 96.3946C59.0377 97.7588 59.0484 99.8576 60.0338 101.743C61.2929 104.17 63.7058 105.615 66.4881 105.619H66.4988C67.5868 105.625 68.6636 105.399 69.658 104.958C70.6524 104.516 71.5416 103.869 72.2669 103.058C73.6972 101.44 74.3348 99.3346 74.0611 97.1266C73.7794 94.8538 72.4435 92.8265 70.408 91.562C68.1259 90.1466 65.353 89.8999 62.6004 90.8678C62.5666 90.8798 62.5295 90.8779 62.4971 90.8624C62.4648 90.847 62.4399 90.8194 62.4279 90.7856C62.4159 90.7518 62.4178 90.7146 62.4333 90.6823C62.4487 90.6499 62.4763 90.625 62.5101 90.613C65.3409 89.6182 68.1973 89.8743 70.5509 91.3329C72.6592 92.6404 74.0369 94.7393 74.3253 97.0929C74.6084 99.3845 73.9479 101.567 72.4664 103.241C71.7157 104.079 70.7955 104.749 69.7668 105.205C68.7381 105.662 67.6242 105.895 66.4988 105.889Z" fill="#00B0F3"/>
  <path opacity="0.4" d="M14.5819 204.19H52.0522L52.0522 166.72H14.5819L14.5819 204.19Z" fill="white"/>
  <path d="M55.2737 207.547H17.7994C17.7636 207.547 17.7293 207.533 17.704 207.507C17.6788 207.482 17.6646 207.448 17.6646 207.412V169.938C17.6646 169.902 17.6788 169.867 17.704 169.842C17.7293 169.817 17.7636 169.803 17.7994 169.803H55.2737C55.3095 169.803 55.3438 169.817 55.3691 169.842C55.3943 169.867 55.4085 169.902 55.4085 169.938V207.412C55.4085 207.448 55.3943 207.482 55.3691 207.507C55.3438 207.533 55.3095 207.547 55.2737 207.547ZM17.9342 207.277H55.1389V170.072H17.9342V207.277Z" fill="white"/>
  <path d="M29.7144 197.683L15.8408 182.804L20.455 178.52L28.9838 187.645L41.7278 169.138L46.9136 172.709L29.7144 197.683Z" fill="#00B0F3"/>
  <path d="M231.113 196.535L229.835 197.019L206.774 165.175L230.567 143.945L242.221 169.545C247.01 180.062 241.917 192.437 231.113 196.535Z" fill="#84524D"/>
  <path d="M135.398 139.552C135.398 139.552 123.073 150.89 116.288 143.551C109.245 135.93 101.021 127.151 96.7558 123.022C87.9614 114.511 73.7387 103.224 72.1858 105.228C71.3015 106.373 72.9218 108.314 77.6007 113.211C77.1168 113.2 75.6421 113.529 74.995 114.726C74.0393 116.496 75.2565 117.662 75.3158 117.816C75.1514 117.798 73.275 117.704 72.4338 118.781C71.4902 119.994 71.683 121.284 72.264 122.344C71.8596 122.314 70.1072 122.479 69.3496 123.549C68.3669 124.947 69.1487 126.668 70.1759 127.633C72.0631 129.405 77.3324 134.117 79.802 136.966C82.8741 140.508 94.9185 155.231 103.362 165.582C105.953 168.759 109.376 171.153 113.249 172.497C117.122 173.84 121.293 174.08 125.294 173.19L135.032 171.026L135.398 139.552Z" fill="#84524D"/>
  <path d="M87.2562 132.48C87.2311 132.48 87.2066 132.473 87.1855 132.46C87.1643 132.446 87.1472 132.427 87.1362 132.405C85.9136 129.969 85.923 127.776 85.9338 126.014C85.9446 124.252 85.9472 123.1 84.7664 122.644C83.7473 122.248 82.766 121.318 81.852 119.877C81.7125 119.664 81.6434 119.413 81.6545 119.158C81.6656 118.904 81.7564 118.66 81.914 118.46C82.0676 118.254 82.2811 118.101 82.5251 118.022C82.7691 117.943 83.0317 117.941 83.2769 118.016L90.8917 120.317C90.9087 120.323 90.9246 120.331 90.9383 120.342C90.9521 120.353 90.9635 120.367 90.9719 120.383C90.9803 120.399 90.9855 120.416 90.9873 120.433C90.989 120.451 90.9872 120.469 90.982 120.486C90.9715 120.52 90.9478 120.549 90.9162 120.565C90.8846 120.582 90.8477 120.585 90.8135 120.575L83.1946 118.271C83.0021 118.211 82.7955 118.212 82.6036 118.274C82.4117 118.337 82.2442 118.458 82.1243 118.62C82.0013 118.777 81.9305 118.968 81.9218 119.167C81.9131 119.366 81.9669 119.563 82.0758 119.73C82.9587 121.121 83.8956 122.021 84.8594 122.389C86.2074 122.915 86.2074 124.277 86.1993 126.015C86.1912 127.754 86.1791 129.906 87.3721 132.285C87.3881 132.317 87.3908 132.354 87.3797 132.388C87.3686 132.421 87.3445 132.449 87.3128 132.466C87.2951 132.474 87.2759 132.479 87.2562 132.48Z" fill="#363E44"/>
  <path d="M74.4598 129.701C74.4255 129.7 74.3928 129.687 74.3681 129.663C74.343 129.638 74.3289 129.604 74.3289 129.568C74.3289 129.532 74.343 129.498 74.3681 129.473C75.033 128.765 75.406 127.832 75.4125 126.861C75.419 125.89 75.0585 124.952 74.4032 124.235L73.3248 123.066C73.3024 123.041 73.29 123.009 73.29 122.976C73.29 122.942 73.3024 122.91 73.3248 122.885C73.3466 122.861 73.3768 122.845 73.4096 122.841C73.4424 122.837 73.4756 122.845 73.5027 122.864L76.0504 124.661C76.5457 125.01 77.1543 125.159 77.7548 125.079C78.3554 124.999 78.9038 124.696 79.2909 124.23C79.6779 123.764 79.8751 123.169 79.8431 122.564C79.8112 121.959 79.5524 121.389 79.1185 120.966L76.1381 118.069C76.1134 118.045 76.0989 118.013 76.0974 117.978C76.0959 117.944 76.1075 117.91 76.13 117.884C76.1527 117.858 76.1844 117.842 76.2188 117.839C76.2532 117.835 76.2875 117.846 76.3146 117.867L77.8958 119.106C78.275 119.403 78.7532 119.545 79.2334 119.503C79.7135 119.461 80.1597 119.238 80.4813 118.879C80.8029 118.52 80.9759 118.052 80.9651 117.57C80.9543 117.088 80.7607 116.629 80.4233 116.284L78.3838 114.199C78.3712 114.186 78.3612 114.171 78.3543 114.155C78.3475 114.139 78.3439 114.121 78.3439 114.103C78.3439 114.085 78.3475 114.068 78.3543 114.051C78.3612 114.035 78.3712 114.02 78.3838 114.007C78.4091 113.982 78.4432 113.968 78.4789 113.968C78.5145 113.968 78.5486 113.982 78.5739 114.007L80.6121 116.09C80.9772 116.464 81.1949 116.958 81.2248 117.48C81.2548 118.002 81.0951 118.517 80.7752 118.931C80.4552 119.344 79.9966 119.628 79.4838 119.73C78.9711 119.832 78.4387 119.745 77.9848 119.486L79.3032 120.766C79.7881 121.236 80.0779 121.871 80.1144 122.546C80.151 123.22 79.9316 123.883 79.5002 124.402C79.0688 124.921 78.4572 125.259 77.7878 125.346C77.1184 125.434 76.4406 125.266 75.89 124.875L74.3762 123.805L74.5932 124.041C75.2945 124.808 75.6802 125.812 75.6732 126.851C75.6662 127.891 75.267 128.889 74.5555 129.647C74.5442 129.662 74.5299 129.675 74.5134 129.684C74.4969 129.693 74.4786 129.699 74.4598 129.701Z" fill="#363E44"/>
  <path d="M218.854 172.495L242.279 162.613C242.279 162.613 231.453 116.771 185.965 122.901C171.723 124.819 163.879 125.866 144.177 132.231C119.288 140.284 118.189 141.016 118.189 141.016L130.995 175.057L139.413 172.861L129.478 244.566C129.478 244.566 196.706 246.762 229.283 244.566C229.294 244.566 221.781 184.209 218.854 172.495Z" fill="#00B0F3"/>
  <path d="M177.484 193.451C177.456 193.451 177.428 193.442 177.406 193.426C177.383 193.409 177.366 193.387 177.357 193.36L161.889 149.93L128.002 150.227C127.967 150.227 127.932 150.213 127.907 150.188C127.882 150.162 127.868 150.128 127.868 150.092C127.868 150.056 127.882 150.022 127.907 149.997C127.932 149.972 127.967 149.957 128.002 149.957L161.984 149.661C162.013 149.659 162.042 149.667 162.066 149.683C162.091 149.699 162.109 149.722 162.119 149.75L177.621 193.27C177.627 193.287 177.63 193.305 177.629 193.322C177.628 193.34 177.623 193.357 177.616 193.373C177.608 193.389 177.597 193.404 177.584 193.416C177.571 193.428 177.556 193.437 177.539 193.443C177.521 193.449 177.502 193.452 177.484 193.451Z" fill="white"/>
  <path d="M140.947 196.287H174.929L159.429 152.767H125.446L140.947 196.287Z" fill="white"/>
  <path d="M225.227 172.499C213.601 173.276 186.135 173.752 183.453 173.905C178.444 174.192 151.602 176.427 151.505 180.334C151.459 182.201 156.649 182.005 158.403 181.887C157.033 182.68 151.447 185.156 151.933 187.192C152.512 189.583 159.616 187.651 159.751 187.692C158.279 188.355 152.31 190.764 152.62 192.305C153.024 194.308 159.248 193.734 161.104 193.475C160.945 193.755 154.945 195.216 155.325 197.625C155.603 199.395 161.315 198.859 163.792 198.634C168.241 198.381 220.163 198.263 229.809 197.016C233.589 196.519 230.335 176.139 225.227 172.499Z" fill="#84524D"/>
  <path d="M218.697 172.702C218.662 172.702 218.627 172.688 218.602 172.663C218.577 172.637 218.562 172.603 218.562 172.567C218.562 172.532 218.577 172.497 218.602 172.472C218.627 172.447 218.662 172.433 218.697 172.433C223.973 172.198 229.077 171.97 230.735 171.877C230.753 171.876 230.77 171.879 230.787 171.885C230.804 171.89 230.819 171.9 230.832 171.911C230.846 171.923 230.856 171.938 230.864 171.954C230.872 171.97 230.876 171.987 230.877 172.005C230.878 172.022 230.876 172.04 230.87 172.057C230.864 172.073 230.855 172.089 230.843 172.102C230.831 172.115 230.817 172.126 230.801 172.134C230.785 172.141 230.767 172.146 230.75 172.147C229.097 172.238 223.986 172.468 218.708 172.702H218.697Z" fill="#363E44"/>
  <path d="M158.328 181.84C158.297 181.84 158.267 181.83 158.243 181.81C158.218 181.791 158.202 181.763 158.195 181.733C158.189 181.702 158.193 181.671 158.208 181.643C158.222 181.615 158.246 181.594 158.274 181.581C161.003 180.408 163.932 179.772 166.902 179.709C166.937 179.709 166.972 179.723 166.997 179.748C167.022 179.774 167.036 179.808 167.036 179.844C167.036 179.88 167.022 179.914 166.997 179.939C166.972 179.964 166.937 179.979 166.902 179.979C163.968 180.04 161.074 180.668 158.38 181.829C158.363 181.836 158.346 181.84 158.328 181.84Z" fill="#363E44"/>
  <path d="M159.646 187.704C159.611 187.709 159.574 187.7 159.545 187.678C159.516 187.657 159.497 187.624 159.492 187.589C159.487 187.553 159.496 187.517 159.518 187.488C159.539 187.459 159.572 187.44 159.607 187.434C159.823 187.368 160.041 187.3 160.257 187.246C162.092 186.742 163.982 186.465 165.885 186.423C165.921 186.423 165.955 186.438 165.98 186.463C166.006 186.488 166.02 186.522 166.02 186.558C166.02 186.594 166.006 186.628 165.98 186.653C165.955 186.679 165.921 186.693 165.885 186.693C164.005 186.734 162.136 187.006 160.322 187.502C160.109 187.561 159.893 187.624 159.68 187.689C159.67 187.696 159.658 187.701 159.646 187.704Z" fill="#363E44"/>
  <path d="M161.225 193.549C161.189 193.552 161.154 193.541 161.126 193.518C161.099 193.495 161.081 193.462 161.078 193.426C161.075 193.391 161.086 193.355 161.109 193.328C161.132 193.3 161.165 193.283 161.201 193.279C162.426 193.053 163.667 192.925 164.912 192.898C164.948 192.898 164.982 192.912 165.007 192.937C165.032 192.963 165.047 192.997 165.047 193.033C165.047 193.069 165.032 193.103 165.007 193.128C164.982 193.153 164.948 193.168 164.912 193.168C163.681 193.195 162.455 193.32 161.244 193.544L161.225 193.549Z" fill="#363E44"/>
  <path d="M218.697 172.702C218.674 172.702 218.651 172.696 218.63 172.685C218.61 172.673 218.593 172.657 218.581 172.636L207.719 154.275C207.705 154.245 207.703 154.21 207.713 154.179C207.724 154.147 207.745 154.12 207.774 154.103C207.803 154.086 207.837 154.081 207.87 154.088C207.902 154.095 207.931 154.113 207.951 154.14L218.813 172.502C218.831 172.532 218.837 172.569 218.828 172.604C218.819 172.638 218.797 172.668 218.766 172.686C218.745 172.697 218.721 172.703 218.697 172.702Z" fill="#363E44"/>
  <path d="M157.566 114.064C160.428 117.913 173.26 114.152 173.26 114.152L183.35 103.532C183.845 102.007 184.035 100.398 183.91 98.7992C183.784 97.2001 183.344 95.6414 182.616 94.2122C181.888 92.783 180.885 91.5112 179.665 90.4694C178.445 89.4277 177.032 88.6364 175.507 88.1407C173.981 87.6451 172.373 87.4548 170.774 87.5806C169.175 87.7065 167.616 88.1461 166.187 88.8744C164.758 89.6027 163.486 90.6053 162.444 91.8251C161.402 93.0448 160.611 94.4578 160.115 95.9834C160.115 95.9834 154.652 110.155 157.566 114.064Z" fill="#84524D"/>
  <path d="M181.478 134.419C180.447 134.835 179.345 135.045 178.234 135.035C177.123 135.025 176.025 134.796 175.003 134.362C173.98 133.928 173.053 133.297 172.274 132.504C171.495 131.711 170.881 130.773 170.464 129.743L160.337 104.67C160.211 104.358 160.147 104.024 160.15 103.688C160.153 103.351 160.222 103.018 160.354 102.708C160.485 102.398 160.677 102.118 160.917 101.882C161.157 101.646 161.441 101.46 161.754 101.334L172.689 96.9165C173.001 96.7902 173.335 96.7267 173.671 96.7296C174.008 96.7325 174.341 96.8016 174.651 96.9332C174.96 97.0648 175.241 97.2562 175.477 97.4964C175.713 97.7367 175.899 98.021 176.025 98.3333L186.152 123.406C186.993 125.486 186.973 127.815 186.096 129.881C185.219 131.946 183.558 133.579 181.478 134.419Z" fill="#84524D"/>
  <path d="M160.459 99.4844C160.459 99.4844 156.092 101.841 155.973 102.798C155.83 103.941 159.247 105.776 159.247 105.776C159.247 105.776 160.369 99.4642 160.459 99.4844Z" fill="#84524D"/>
  <path d="M172.212 100.971C172.212 100.971 170.755 99.4491 168.629 98.7589C168.176 98.612 167.854 102.509 168.35 102.444C169.729 102.238 171.047 101.735 172.212 100.971Z" fill="white"/>
  <path d="M166.799 102.472C163.917 102.193 161.775 99.9549 161.775 99.9549C161.775 99.9549 164.306 98.1701 167.189 98.4478C167.677 98.4982 168.159 98.6012 168.625 98.7551C168.899 99.3407 169.018 99.9869 168.971 100.632C168.924 101.277 168.712 101.899 168.355 102.438C167.839 102.509 167.317 102.52 166.799 102.472Z" fill="#363E44"/>
  <path d="M159.858 118.465C157.971 117.252 156.407 114.919 155.87 112.329C155.019 108.233 157.063 105.05 157.487 104.42C159.747 105.76 162.308 106.509 164.934 106.598C166.551 106.643 171.192 106.773 174.587 103.335C176.588 101.313 177.266 98.9449 177.52 97.729C177.43 98.7885 177.34 99.8472 177.25 100.905C176.405 103.062 175.421 106.622 176.172 110.761C176.321 111.585 176.531 112.396 176.8 113.188C171.354 119.386 164.012 121.124 159.858 118.465Z" fill="#363E44"/>
  <path d="M162 109.83C161.725 109.83 161.454 109.769 161.205 109.651C160.957 109.533 160.737 109.361 160.563 109.148C160.541 109.12 160.53 109.085 160.533 109.049C160.537 109.013 160.554 108.981 160.582 108.958C160.61 108.935 160.645 108.924 160.681 108.928C160.717 108.931 160.75 108.949 160.772 108.977C160.961 109.21 161.212 109.384 161.497 109.479C161.781 109.575 162.087 109.586 162.378 109.514C162.669 109.441 162.934 109.287 163.14 109.069C163.347 108.852 163.487 108.58 163.544 108.285C163.551 108.25 163.571 108.219 163.601 108.199C163.63 108.179 163.666 108.172 163.701 108.179C163.719 108.182 163.736 108.189 163.75 108.199C163.765 108.209 163.778 108.221 163.788 108.236C163.798 108.251 163.805 108.267 163.808 108.285C163.812 108.302 163.811 108.32 163.808 108.338C163.74 108.676 163.579 108.989 163.343 109.242C163.108 109.495 162.807 109.677 162.473 109.768C162.319 109.809 162.16 109.83 162 109.83Z" fill="#84524D"/>
  <path d="M184.682 89.6548C183.191 83.454 180.886 81.4604 179.02 80.8025C176.606 79.9519 174.856 81.3215 171.245 80.9589C167.693 80.603 164.951 78.8318 163.192 77.3921C159.787 80.6448 157.842 85.0029 158.935 88.4376C160.544 93.4913 168.959 97.2414 177.89 93.2904C177.676 95.8282 177.462 98.3665 177.246 100.905C177.711 98.6784 179.144 97.9397 180.315 98.096C181.688 98.274 182.502 100.064 182.482 101.419C182.41 106.193 179.104 107.215 178.812 107.42C180.235 109.776 180.487 110.225 181.529 111.966C186.67 109.718 191.276 103.504 190.672 98.3373C190.4 96.2383 189.598 94.2433 188.34 92.5409C187.348 91.3213 186.099 90.3359 184.682 89.6548Z" fill="#363E44"/>
  <path d="M178.74 103.171C178.708 103.171 178.677 103.16 178.652 103.14C178.627 103.119 178.611 103.091 178.605 103.059C178.444 102.07 178.822 101.13 179.57 100.664C180.005 100.404 180.517 100.306 181.017 100.386C181.053 100.391 181.085 100.41 181.106 100.439C181.128 100.468 181.137 100.505 181.132 100.54C181.127 100.576 181.108 100.608 181.079 100.63C181.05 100.652 181.013 100.661 180.978 100.656C180.541 100.585 180.094 100.67 179.713 100.894C179.058 101.299 178.728 102.137 178.871 103.017C178.877 103.053 178.868 103.089 178.848 103.118C178.827 103.147 178.795 103.166 178.76 103.172L178.74 103.171Z" fill="#363E44"/>
  <path opacity="0.4" d="M135.114 50.7754L172.584 50.7754V13.305L135.114 13.305V50.7754Z" fill="white"/>
  <path d="M175.803 54.1322H138.328C138.292 54.1322 138.258 54.118 138.233 54.0927C138.208 54.0674 138.193 54.0331 138.193 53.9974V16.523C138.193 16.4872 138.208 16.4529 138.233 16.4277C138.258 16.4024 138.292 16.3882 138.328 16.3882H175.803C175.838 16.3882 175.873 16.4024 175.898 16.4277C175.923 16.4529 175.937 16.4872 175.937 16.523V53.9974C175.937 54.0331 175.923 54.0674 175.898 54.0927C175.873 54.118 175.838 54.1322 175.803 54.1322ZM138.463 53.8626H175.668V16.6578H138.463V53.8626Z" fill="white"/>
  <path d="M150.248 44.2675L136.375 29.3897L140.987 25.1057L149.518 34.2303L162.262 15.7236L167.447 19.2945L150.248 44.2675Z" fill="#00B0F3"/>
  </svg>
  