<svg width="83" height="84" viewBox="0 0 83 84" fill="none" xmlns="http://www.w3.org/2000/svg">
<path d="M76.0833 43.424L73.2025 52.0698M73.2025 52.0698L69.1666 64.174H53.6041L50.1458 52.0698H73.2025ZM57.0625 71.1252L57.097 71.0872M67.4375 71.1252L67.472 71.0872M31.125 38.2365C34.7938 38.2365 38.3124 36.7791 40.9066 34.1848C43.5009 31.5905 44.9583 28.072 44.9583 24.4032C44.9583 20.7343 43.5009 17.2158 40.9066 14.6215C38.3124 12.0273 34.7938 10.5698 31.125 10.5698C27.4561 10.5698 23.9376 12.0273 21.3433 14.6215C18.7491 17.2158 17.2916 20.7343 17.2916 24.4032C17.2916 28.072 18.7491 31.5905 21.3433 34.1848C23.9376 36.7791 27.4561 38.2365 31.125 38.2365Z" stroke="white" stroke-width="5.1875" stroke-linecap="round" stroke-linejoin="round"/>
<path d="M6.91663 62.4443C6.91669 57.9004 8.19562 53.4482 10.6071 49.597C13.0187 45.7458 16.4654 42.6511 20.5531 40.6667C24.6409 38.6824 29.2046 37.8886 33.7223 38.3761C38.24 38.8636 42.5293 40.6128 46.0995 43.4235" stroke="white" stroke-width="5.1875" stroke-linecap="round" stroke-linejoin="round"/>
</svg>
