<svg width="96" height="97" viewBox="0 0 96 97" fill="none" xmlns="http://www.w3.org/2000/svg">
<path d="M48.0006 91.1947C45.3206 91.1947 42.6006 90.5146 40.2006 89.1146L16.4406 75.3947C11.6406 72.5947 8.64062 67.4347 8.64062 61.8747V34.5148C8.64062 28.9548 11.6406 23.7948 16.4406 20.9948L40.2006 7.2748C45.0006 4.4748 50.9606 4.4748 55.8006 7.2748L79.5606 20.9948C84.3606 23.7948 87.3606 28.9548 87.3606 34.5148V61.8747C87.3606 67.4347 84.3606 72.5947 79.5606 75.3947L55.8006 89.1146C53.4006 90.5146 50.6806 91.1947 48.0006 91.1947ZM48.0006 11.1947C46.3606 11.1947 44.6806 11.6348 43.2006 12.4748L19.4406 26.1947C16.4806 27.9147 14.6406 31.0748 14.6406 34.5148V61.8747C14.6406 65.2747 16.4806 68.4747 19.4406 70.1947L43.2006 83.9147C46.1606 85.6347 49.8406 85.6347 52.8006 83.9147L76.5606 70.1947C79.5206 68.4747 81.3606 65.3147 81.3606 61.8747V34.5148C81.3606 31.1148 79.5206 27.9147 76.5606 26.1947L52.8006 12.4748C51.3206 11.6348 49.6406 11.1947 48.0006 11.1947Z" fill="#292D32"/>
<path d="M47.9997 47.1951C41.1997 47.1951 35.6797 41.675 35.6797 34.875C35.6797 28.075 41.1997 22.5552 47.9997 22.5552C54.7997 22.5552 60.3197 28.075 60.3197 34.875C60.3197 41.675 54.7997 47.1951 47.9997 47.1951ZM47.9997 28.5552C44.5197 28.5552 41.6797 31.395 41.6797 34.875C41.6797 38.355 44.5197 41.1951 47.9997 41.1951C51.4797 41.1951 54.3197 38.355 54.3197 34.875C54.3197 31.395 51.4797 28.5552 47.9997 28.5552Z" fill="#292D32"/>
<path d="M64 69.8352C62.36 69.8352 61 68.4752 61 66.8352C61 61.3152 55.16 56.7954 48 56.7954C40.84 56.7954 35 61.3152 35 66.8352C35 68.4752 33.64 69.8352 32 69.8352C30.36 69.8352 29 68.4752 29 66.8352C29 57.9952 37.52 50.7954 48 50.7954C58.48 50.7954 67 57.9952 67 66.8352C67 68.4752 65.64 69.8352 64 69.8352Z" fill="#292D32"/>
</svg>
