<svg width="83" height="84" viewBox="0 0 83 84" fill="none" xmlns="http://www.w3.org/2000/svg">
<path d="M76.0834 43.424L73.2026 52.0698M73.2026 52.0698L69.1667 64.174H53.6042L50.1459 52.0698H73.2026ZM57.0625 71.1252L57.0971 71.0872M67.4375 71.1252L67.4721 71.0872M31.125 38.2365C34.7938 38.2365 38.3124 36.7791 40.9067 34.1848C43.5009 31.5905 44.9584 28.072 44.9584 24.4032C44.9584 20.7343 43.5009 17.2158 40.9067 14.6215C38.3124 12.0273 34.7938 10.5698 31.125 10.5698C27.4562 10.5698 23.9376 12.0273 21.3434 14.6215C18.7491 17.2158 17.2917 20.7343 17.2917 24.4032C17.2917 28.072 18.7491 31.5905 21.3434 34.1848C23.9376 36.7791 27.4562 38.2365 31.125 38.2365Z" stroke="black" stroke-width="5.1875" stroke-linecap="round" stroke-linejoin="round"/>
<path d="M6.91669 62.4443C6.91675 57.9004 8.19568 53.4482 10.6072 49.597C13.0187 45.7458 16.4654 42.6511 20.5532 40.6667C24.6409 38.6824 29.2046 37.8886 33.7223 38.3761C38.24 38.8636 42.5293 40.6128 46.0996 43.4235" stroke="black" stroke-width="5.1875" stroke-linecap="round" stroke-linejoin="round"/>
</svg>
