<svg width="96" height="97" viewBox="0 0 96 97" fill="none" xmlns="http://www.w3.org/2000/svg">
<path d="M78.04 23.5948L54.28 9.87482C50.4 7.63482 45.6 7.63482 41.68 9.87482L17.96 23.5948C14.08 25.8348 11.68 29.9948 11.68 34.5148V61.8748C11.68 66.3548 14.08 70.5148 17.96 72.7948L41.72 86.5148C45.6 88.7548 50.4 88.7548 54.32 86.5148L78.08 72.7948C81.96 70.5548 84.36 66.3948 84.36 61.8748V34.5148C84.32 29.9948 81.92 25.8748 78.04 23.5948ZM48 29.5548C53.16 29.5548 57.32 33.7148 57.32 38.8748C57.32 44.0348 53.16 48.1948 48 48.1948C42.84 48.1948 38.68 44.0348 38.68 38.8748C38.68 33.7548 42.84 29.5548 48 29.5548ZM58.72 66.8348H37.28C34.04 66.8348 32.16 63.2348 33.96 60.5548C36.68 56.5148 41.96 53.7948 48 53.7948C54.04 53.7948 59.32 56.5148 62.04 60.5548C63.84 63.1948 61.92 66.8348 58.72 66.8348Z" fill="white"/>
</svg>
